<?xml version="1.0" standalone="no"?>
<!DOCTYPE svg PUBLIC "-//W3C//DTD SVG 20010904//EN"
 "http://www.w3.org/TR/2001/REC-SVG-20010904/DTD/svg10.dtd">
<svg version="1.0" xmlns="http://www.w3.org/2000/svg"
 width="682.000000pt" height="364.000000pt" viewBox="0 0 682.000000 364.000000"
 preserveAspectRatio="xMidYMid meet">

<g transform="translate(0.000000,364.000000) scale(0.100000,-0.100000)"
fill="#000000" stroke="none">
<path d="M428 2623 c-30 -5 -28 0 -48 -143 -25 -186 -41 -405 -47 -649 l-6
-264 84 7 c103 8 236 35 352 70 156 48 285 155 303 253 20 109 -69 183 -300
248 l-58 17 55 23 c140 57 237 157 237 245 0 77 -61 146 -152 170 -89 25 -326
37 -420 23z m374 -108 c86 -42 58 -130 -59 -192 -59 -32 -189 -73 -231 -73
-20 0 -22 4 -18 33 30 183 38 222 47 239 10 19 18 20 118 16 75 -4 117 -10
143 -23z m-76 -460 c132 -46 194 -92 194 -142 0 -38 -73 -107 -153 -146 -72
-36 -241 -87 -286 -87 l-24 0 6 203 c3 111 8 209 12 218 6 15 13 15 93 -2 48
-10 119 -30 158 -44z"/>
<path d="M3312 2553 c-40 -188 -67 -748 -46 -930 l7 -53 56 6 c31 4 57 8 59 9
1 1 -3 68 -8 149 -6 81 -8 151 -5 157 4 5 32 -17 63 -48 128 -130 245 -202
427 -262 177 -58 176 -58 203 -16 12 19 22 37 22 39 0 2 -15 8 -32 11 -72 16
-188 60 -273 103 -140 72 -305 243 -305 317 0 35 60 126 128 194 81 80 163
136 301 203 l104 51 -39 33 c-21 18 -45 33 -52 34 -20 0 -230 -108 -303 -156
-36 -24 -100 -79 -142 -124 -76 -78 -77 -79 -77 -49 0 67 32 245 56 307 13 35
24 66 24 68 0 2 -36 4 -79 4 l-79 0 -10 -47z"/>
<path d="M5219 2228 c-14 -51 -15 -53 -59 -60 -197 -33 -325 -179 -290 -332
23 -102 95 -168 215 -196 l70 -17 3 -121 c3 -136 1 -132 75 -111 l37 10 1 72
c0 40 3 90 7 112 l7 40 78 8 c168 16 257 103 257 249 0 139 -83 230 -250 273
-44 11 -45 12 -44 53 1 39 -2 42 -38 57 -21 8 -42 15 -47 15 -4 0 -14 -24 -22
-52z m-37 -161 c1 -4 -5 -84 -12 -177 -15 -193 -11 -187 -96 -145 -59 29 -94
73 -101 125 -7 51 2 82 33 120 44 51 173 108 176 77z m201 -11 c89 -32 147
-102 147 -178 0 -38 -6 -54 -30 -81 -34 -39 -103 -72 -172 -82 -48 -7 -48 -7
-48 22 0 32 17 221 26 291 6 47 14 50 77 28z"/>
<path d="M1260 2160 c-78 -150 -93 -203 -94 -320 -1 -90 2 -111 21 -147 28
-52 83 -98 142 -118 133 -45 317 18 352 122 60 184 -171 336 -362 237 -17 -8
-34 -13 -37 -9 -10 10 17 97 58 183 22 45 39 86 38 90 -1 4 -19 15 -39 24
l-38 16 -41 -78z m258 -302 c37 -19 66 -63 66 -103 0 -120 -234 -145 -288 -31
-15 31 -15 39 -2 63 40 78 143 110 224 71z"/>
<path d="M2051 2205 c-68 -19 -109 -45 -156 -96 -52 -58 -68 -102 -69 -184 0
-59 4 -79 29 -125 45 -84 146 -180 235 -224 102 -50 138 -55 168 -23 l23 24
-75 36 c-42 20 -98 57 -125 82 -51 47 -101 121 -101 148 0 9 24 20 65 32 126
34 229 96 260 156 20 37 19 99 -1 127 -37 53 -154 75 -253 47z m123 -91 c24
-23 19 -52 -12 -83 -39 -40 -202 -96 -202 -70 0 36 89 147 130 162 30 11 69 7
84 -9z"/>
<path d="M2461 2189 c-6 -18 -11 -34 -11 -35 0 -2 40 -4 88 -4 49 0 91 -2 93
-5 3 -2 1 -42 -3 -87 -18 -178 28 -351 116 -441 33 -33 130 -97 148 -97 4 0
15 11 24 25 16 25 15 26 -33 69 -109 98 -152 261 -127 474 l7 52 137 0 136 0
22 30 c12 16 22 34 22 40 0 7 -100 10 -304 10 l-304 0 -11 -31z"/>
<path d="M5985 2196 c-66 -21 -100 -43 -147 -95 -75 -83 -91 -201 -41 -302 55
-109 198 -224 329 -262 52 -15 52 -15 77 11 l26 27 -70 29 c-84 34 -181 119
-222 194 l-27 50 88 27 c105 33 150 55 198 97 92 81 80 199 -24 228 -49 13
-138 12 -187 -4z m123 -82 c65 -45 -23 -131 -165 -163 -48 -10 -50 -7 -27 47
27 65 104 130 154 132 9 0 26 -7 38 -16z"/>
<path d="M4222 2154 c-64 -32 -135 -109 -156 -171 -37 -107 -12 -226 59 -292
106 -98 307 -91 405 14 l22 23 58 -58 c59 -59 184 -130 228 -130 18 0 62 46
51 53 -2 1 -39 19 -81 40 -82 41 -174 121 -202 175 -37 71 -13 196 49 270 l35
40 -35 31 c-20 17 -42 31 -49 31 -8 0 -32 -20 -54 -45 -29 -33 -41 -41 -45
-31 -3 8 -30 29 -59 45 -71 41 -150 43 -226 5z m184 -86 c33 -15 63 -66 70
-119 14 -107 -82 -239 -174 -239 -116 0 -185 106 -148 232 33 115 149 173 252
126z"/>
<path d="M4883 1205 c5 -14 69 -13 74 1 2 7 -11 11 -37 10 -22 0 -39 -5 -37
-11z"/>
<path d="M360 1080 c0 -91 3 -110 15 -110 11 0 15 12 15 45 0 40 2 45 23 45
55 0 91 62 62 106 -13 20 -24 24 -65 24 l-50 0 0 -110z m78 78 c19 -19 14 -56
-8 -68 -29 -16 -40 -4 -40 41 0 31 4 39 18 39 10 0 23 -5 30 -12z"/>
<path d="M580 1080 l0 -110 50 0 c28 0 50 5 50 10 0 6 -16 10 -35 10 -35 0
-35 0 -35 45 0 43 1 45 30 45 17 0 30 5 30 10 0 6 -13 10 -30 10 -28 0 -30 3
-30 35 0 33 2 35 35 35 19 0 35 5 35 10 0 6 -22 10 -50 10 l-50 0 0 -110z"/>
<path d="M802 1170 c-27 -26 -36 -59 -29 -116 6 -61 29 -84 84 -84 31 0 43 4
43 15 0 11 -7 13 -28 9 -50 -10 -69 24 -63 111 3 38 35 67 67 59 18 -5 24 -2
24 10 0 24 -70 21 -98 -4z"/>
<path d="M980 1181 c0 -5 10 -11 23 -13 21 -3 22 -7 22 -100 0 -87 2 -98 17
-98 16 0 18 11 18 101 0 96 1 101 20 96 13 -3 20 0 20 9 0 10 -15 14 -60 14
-33 0 -60 -4 -60 -9z"/>
<path d="M1211 1173 c-37 -30 -47 -121 -20 -174 14 -28 65 -43 98 -30 37 16
51 48 51 117 0 45 -4 59 -25 79 -29 30 -73 33 -104 8z m73 -16 c24 -17 32
-102 14 -137 -18 -33 -52 -37 -72 -8 -23 33 -21 113 4 138 24 24 30 24 54 7z"/>
<path d="M1440 1080 c0 -91 3 -110 15 -110 11 0 15 12 15 45 0 43 1 45 30 45
38 0 70 31 70 69 0 39 -32 61 -87 61 l-43 0 0 -110z m90 60 c12 -22 -14 -60
-41 -60 -16 0 -19 7 -19 39 0 52 37 65 60 21z"/>
<path d="M1695 1178 c-18 -47 -65 -193 -65 -200 0 -23 28 -4 36 25 8 27 15 32
39 32 24 0 31 -5 39 -32 5 -21 15 -33 26 -33 15 0 14 11 -13 110 -20 72 -35
110 -44 110 -7 0 -16 -6 -18 -12z m29 -90 c5 -24 3 -28 -14 -28 -21 0 -24 10
-14 48 8 27 19 19 28 -20z"/>
<path d="M1870 1080 c0 -89 3 -110 14 -110 11 0 16 14 18 48 3 47 3 47 41 50
l37 3 0 -50 c0 -39 4 -51 15 -51 12 0 15 19 15 110 0 89 -3 110 -14 110 -11 0
-16 -14 -18 -47 -3 -48 -3 -48 -38 -48 -35 0 -35 0 -38 48 -2 33 -7 47 -18 47
-11 0 -14 -21 -14 -110z"/>
<path d="M2117 1184 c-4 -4 -7 -53 -7 -110 l0 -102 32 -4 c63 -10 108 21 108
71 0 30 -35 61 -69 61 -28 0 -30 3 -33 42 -3 39 -16 57 -31 42z m87 -126 c13
-19 14 -25 2 -43 -7 -11 -23 -21 -35 -23 -19 -3 -21 1 -21 42 0 39 3 46 19 46
11 0 27 -10 35 -22z"/>
<path d="M2270 1080 c0 -91 3 -110 15 -110 12 0 15 19 15 110 0 91 -3 110 -15
110 -12 0 -15 -19 -15 -110z"/>
<path d="M2553 1183 c-9 -3 -13 -35 -13 -108 l0 -104 33 -6 c80 -15 138 55 86
103 -17 17 -18 20 -5 25 25 10 20 63 -6 81 -22 15 -69 20 -95 9z m82 -43 c8
-27 -12 -52 -39 -48 -16 2 -22 11 -24 36 -3 30 -1 32 27 32 21 0 32 -6 36 -20z
m-5 -84 c6 -8 10 -25 8 -38 -2 -18 -10 -24 -35 -26 -31 -3 -33 -2 -33 31 0 18
3 37 7 40 11 12 40 8 53 -7z"/>
<path d="M2770 1075 c0 -103 0 -105 25 -111 57 -14 105 18 105 71 0 39 -29 65
-72 65 -26 0 -28 3 -28 40 0 29 -4 40 -15 40 -12 0 -15 -18 -15 -105z m81 -5
c21 -12 25 -50 7 -68 -7 -7 -22 -12 -35 -12 -20 0 -23 5 -23 38 0 53 12 63 51
42z"/>
<path d="M3000 1070 l0 -110 50 0 c38 0 50 4 50 15 0 10 -11 15 -35 15 -34 0
-35 1 -35 40 0 36 3 40 25 40 14 0 25 5 25 10 0 6 -11 10 -25 10 -22 0 -25 4
-25 35 0 33 2 35 35 35 19 0 35 5 35 10 0 6 -22 10 -50 10 l-50 0 0 -110z"/>
<path d="M3180 1170 c0 -5 9 -10 20 -10 18 0 20 -8 22 -97 2 -79 6 -98 18 -98
12 0 16 19 18 98 2 89 4 97 22 97 11 0 20 5 20 10 0 6 -27 10 -60 10 -33 0
-60 -4 -60 -10z"/>
<path d="M3390 1070 c0 -89 3 -110 14 -110 11 0 16 15 18 53 l3 52 35 0 35 0
3 -52 c2 -38 7 -53 18 -53 11 0 14 21 14 110 0 91 -3 110 -15 110 -11 0 -15
-12 -15 -45 l0 -45 -40 0 -40 0 0 45 c0 33 -4 45 -15 45 -12 0 -15 -19 -15
-110z"/>
<path d="M3650 1075 c-19 -57 -31 -107 -28 -111 11 -11 26 5 33 36 6 26 11 30
40 30 30 0 33 -3 39 -35 4 -21 13 -35 21 -35 20 0 19 8 -11 122 -36 133 -49
132 -94 -7z m60 16 c8 -28 7 -31 -15 -31 -22 0 -23 2 -12 35 12 40 14 40 27
-4z"/>
<path d="M3860 1070 c0 -85 3 -111 13 -108 7 3 14 31 17 73 l5 69 23 -72 c13
-40 27 -72 32 -72 5 0 18 26 29 58 38 102 40 103 40 20 1 -62 4 -78 16 -78 12
0 15 19 15 110 0 102 -1 110 -19 110 -15 0 -25 -15 -40 -57 -39 -106 -35 -105
-63 -23 -19 60 -29 76 -46 78 -21 3 -22 1 -22 -108z"/>
<path d="M4171 1154 c-15 -20 -21 -41 -21 -80 0 -90 26 -120 96 -112 15 2 29
9 32 17 3 10 -3 12 -25 7 -49 -11 -68 12 -68 84 0 68 19 95 63 87 14 -3 22 1
22 9 0 10 -13 14 -39 14 -31 0 -44 -6 -60 -26z"/>
<path d="M4370 1070 c0 -91 3 -110 15 -110 11 0 15 12 15 48 0 27 3 52 7 55
12 12 42 -25 49 -60 6 -32 27 -53 41 -39 3 3 -4 32 -16 64 -17 49 -19 65 -10
91 6 17 15 31 20 31 5 0 9 7 9 15 0 32 -32 13 -50 -30 -11 -25 -26 -45 -35
-45 -11 0 -15 11 -15 45 0 33 -4 45 -15 45 -12 0 -15 -19 -15 -110z"/>
<path d="M4611 1161 c-40 -40 -34 -168 9 -191 10 -5 34 -10 54 -10 51 0 76 36
76 110 0 76 -25 110 -81 110 -25 0 -46 -7 -58 -19z m79 -11 c42 -22 32 -152
-12 -166 -49 -15 -80 100 -42 154 17 24 27 27 54 12z"/>
<path d="M4850 1070 c0 -138 14 -145 68 -32 l37 77 3 -77 c2 -60 6 -78 17 -78
12 0 15 20 15 110 0 138 -13 143 -69 33 l-40 -78 -1 78 c0 62 -3 77 -15 77
-12 0 -15 -19 -15 -110z"/>
<path d="M5230 1070 c0 -91 3 -110 15 -110 11 0 15 12 15 50 0 36 4 50 14 50
18 0 31 -17 45 -62 7 -21 19 -38 27 -38 19 0 18 10 -6 72 -20 52 -20 52 0 93
24 50 24 55 5 55 -9 0 -24 -20 -35 -45 -11 -25 -26 -45 -35 -45 -11 0 -15 11
-15 45 0 33 -4 45 -15 45 -12 0 -15 -19 -15 -110z"/>
<path d="M5443 1166 c3 -8 18 -49 33 -92 25 -70 26 -77 11 -86 -24 -13 -21
-30 6 -26 18 2 28 20 59 111 33 96 35 107 19 107 -13 0 -21 -13 -30 -55 -7
-30 -16 -57 -20 -60 -5 -2 -16 23 -26 55 -14 47 -23 60 -38 60 -13 0 -17 -5
-14 -14z"/>
<path d="M5679 1122 l29 -57 -24 -45 c-27 -53 -28 -60 -11 -60 7 0 21 17 31
37 l18 38 19 -38 c11 -20 26 -37 34 -37 19 0 19 -2 -9 61 l-24 54 24 45 c27
53 28 60 11 60 -7 0 -21 -17 -31 -37 l-18 -38 -19 38 c-13 24 -26 37 -39 37
-19 0 -19 -3 9 -58z"/>
<path d="M5886 1158 c-3 -13 -6 -62 -6 -110 0 -81 2 -88 20 -88 17 0 20 7 20
50 l0 50 35 0 35 0 0 -50 c0 -38 4 -50 15 -50 12 0 15 19 15 110 0 91 -3 110
-15 110 -11 0 -15 -12 -15 -50 l0 -50 -34 0 c-34 0 -35 1 -38 47 -3 50 -22 68
-32 31z"/>
<path d="M6130 1070 c0 -138 13 -143 69 -32 l40 77 1 -77 c0 -63 3 -78 15 -78
12 0 15 19 15 110 0 138 -13 143 -69 33 l-40 -78 -1 78 c0 62 -3 77 -15 77
-12 0 -15 -19 -15 -110z"/>
</g>
</svg>
